<svg fill="none" height="100" viewBox="0 0 100 100" width="100" xmlns="http://www.w3.org/2000/svg" xmlns:xlink="http://www.w3.org/1999/xlink"><filter id="a" color-interpolation-filters="sRGB" filterUnits="userSpaceOnUse" height="7.46988" width="39.0898" x="19.3984" y="73.066"><feFlood flood-opacity="0" result="BackgroundImageFix"/><feColorMatrix in="SourceAlpha" result="hardAlpha" type="matrix" values="0 0 0 0 0 0 0 0 0 0 0 0 0 0 0 0 0 0 127 0"/><feOffset dy="-.905427"/><feComposite in2="hardAlpha" operator="out"/><feColorMatrix type="matrix" values="0 0 0 0 0.941176 0 0 0 0 0.941176 0 0 0 0 0.941176 0 0 0 1 0"/><feBlend in2="BackgroundImageFix" mode="normal" result="effect1_dropShadow_564_3056"/><feBlend in="SourceGraphic" in2="effect1_dropShadow_564_3056" mode="normal" result="shape"/></filter><filter id="b" color-interpolation-filters="sRGB" filterUnits="userSpaceOnUse" height="14.4867" width="17.8965" x="63.1982" y="66.1295"><feFlood flood-opacity="0" result="BackgroundImageFix"/><feColorMatrix in="SourceAlpha" result="hardAlpha" type="matrix" values="0 0 0 0 0 0 0 0 0 0 0 0 0 0 0 0 0 0 127 0"/><feOffset dy="-.905427"/><feComposite in2="hardAlpha" operator="out"/><feColorMatrix type="matrix" values="0 0 0 0 0.475 0 0 0 0 0.475 0 0 0 0 0.475 0 0 0 1 0"/><feBlend in2="BackgroundImageFix" mode="normal" result="effect1_dropShadow_564_3056"/><feBlend in="SourceGraphic" in2="effect1_dropShadow_564_3056" mode="normal" result="shape"/></filter><radialGradient id="c" cx="0" cy="0" gradientTransform="matrix(0 6.0218 -64.6094 0 47.9602 57.8868)" gradientUnits="userSpaceOnUse" r="1"><stop offset="0" stop-color="#eed5b0"/><stop offset="1" stop-color="#fdc46f" stop-opacity="0"/></radialGradient><radialGradient id="d" cx="0" cy="0" gradientTransform="matrix(0 2.39042 -25.6474 0 47.0276 58.823)" gradientUnits="userSpaceOnUse" r="1"><stop offset="0" stop-color="#ffecd0"/><stop offset="1" stop-color="#ffe9d7" stop-opacity="0"/></radialGradient><radialGradient id="e" cx="0" cy="0" gradientTransform="matrix(0 17.5 -45 0 45 52.5)" gradientUnits="userSpaceOnUse" r="1"><stop offset=".125" stop-color="#ffefac" stop-opacity=".78"/><stop offset=".786458" stop-color="#ffefac" stop-opacity="0"/></radialGradient><mask id="f" height="28" maskUnits="userSpaceOnUse" width="77" x="10" y="53"><path d="m10.3887 60.818 53.158-.2829 23.2091-7.0737-4.4239 20.5905-16.741 6.4512h-47.478z" fill="#d9d9d9"/></mask><mask id="g" height="40" maskUnits="userSpaceOnUse" width="76" x="12" y="14"><path d="m12.7293 53.01 52.103.437 22.8443-6.9012s-1.2813-29.9654-15.9673-31.9808c-11.0081-1.5107-46.5946 1.0939-46.5946 1.0939-12.5861 10.1723-12.3854 37.3511-12.3854 37.3511z" fill="#d9d9d9"/></mask><g mask="url(#f)"><path d="m35.0627 22.173c12.77-3.0654 42.5752.8766 42.5752.8766-.9013 1.0454-13.5901 7.0076-14.4786 30.1114-.4199 10.9193 1.8054 27.3737 1.8054 27.3737h-37.1519s-13.9929-13.7306-10.0775-31.9731c5.2623-24.5182 17.3274-26.3886 17.3274-26.3886z" fill="#505258"/><path d="m72.3554 22.3385c-10.6746 2.9452-11.5325 24.8322-11.5494 33.7223-.0139 7.3256 4.9823 23.5348 4.9823 23.5348l14.7612-5.2904s2.7708-15.2554 3.3711-22.2123c.4827-5.5952-1.438-32.5486-11.5652-29.7544z" fill="#313238"/><g filter="url(#a)"><path d="m19.3984 73.9714h39.0901v6.56435h-39.0901z" fill="#e0dedb"/></g><g filter="url(#b)"><path d="m63.1982 74.0847 17.8967-7.0498-1.1774 7.8093-14.5999 5.7721z" fill="#b4b2af"/></g><path d="m24.9928 20.4858h9.9884v1.566s-12.1019 5.951-12.1019 30.1999c0 11.7981 3.8429 28.3646 3.8429 28.3646h-8.5504s-3.9392-13.7849-3.9394-28.3646c-.0004-26.696 10.7604-31.7659 10.7604-31.7659z" fill="#c9c6c1"/><path d="m62.6044 19.7266 10.2523.6012c-7.3716 9.5249-11.1644 16.7037-10.3239 30.8173.7138 11.9846 2.4446 29.3459 2.4446 29.3459h-9.2927s-1.8697-17.7019-2.4271-29.3459c-1.1193-23.3829 9.3468-31.4185 9.3468-31.4185z" fill="#c9c6c1"/><path d="m60.0194 43.9587c.7313-13.5726 6.2402-22.1953 11.363-24.3457v5.2062c-2.8258.9191-7.7587 10.3054-8.7728 20.5985-.8251 8.3753 2.7827 30.705 2.7827 35.1189h-1.4268s-4.7695-21.2988-3.9461-36.5779z" fill="#b5ab9d"/><path d="m83.9257 48.3605c.6511-10.9059-1.5632-19.915-5.6854-24.3899-2.6796-3.6217-6.9734-4.414-6.9734-4.414v5.3194c3.7904.5093 10.1781 3.6899 9.4729 23.4845-.5887 16.5241-2.4995 27.0497-2.4995 27.0497l2.4183-.8542s2.3686-11.1449 3.2671-26.1955z" fill="#9a9a9a"/><path d="m81.0346 50.3063c.3482-10.1214-.8359-18.4825-3.04-22.6354-1.4329-3.3612-6.6724-4.6624-6.6724-4.6624v1.6411c6.2992 1.5845 8.386 7.286 8.0089 25.6567-.3148 15.3354-1.3365 25.1038-1.3365 25.1038l1.3365-1.0503s1.2231-10.0856 1.7035-24.0535z" fill="#b4b2af"/><path d="m13.9555 55.6367h49.8216l1.4225 4.2338-1.4225 4.8116h-49.8216s-1.2067-2.85-1.1488-4.8116c.0516-1.747 1.1488-4.2338 1.1488-4.2338z" fill="#c9c6c1"/><path d="m14.4631 54.6985h48.7358v1.3908h-49.3337z" fill="#ffc163"/><path d="m13.8652 64.6582h49.3337v1.3909h-48.7358z" fill="#b5ab9d"/><path d="m63.0761 56.7692 21.5302-7.0507s-.1849 2.6168-.1696 3.574c.0215 1.3382-1.0588 4.3314-1.0588 4.3314l-21.0039 7.478s1.4022-3.6283 1.3703-4.8073c-.0279-1.0326-.6682-3.5254-.6682-3.5254z" fill="#b5ab9d"/><path d="m63.1982 54.7001 21.2516-7.0648.8838.7816-22.1354 7.6961z" fill="#cd9036"/><path d="m62.727 64.6599 20.487-6.7925v1.1318l-21.0968 6.9516z" fill="#9b948b"/><path d="m13.04 61.0682h49.8031l20.7796-6.2186" stroke="#000" stroke-opacity=".1" stroke-width=".905427"/></g><path d="m33.4829 54.4111h50.5358l-20.7329 6.4424h-49.3307z" fill="#d5c5aa"/><path d="m33.7067 52.2881v2.4183l-13.2624 4.7889-3.5056 1.3386h-4.0178v-.9054l1.1097-.4332z" fill="#b5ab9d"/><path d="m33.7061 52.2986h49.8948l-4.2848 2.407h-45.61z" fill="#9a9a9a"/><g mask="url(#g)"><path d="m36.0629 17.3797c12.6617-2.8437 42.2497.6519 42.2497.6519-.891.9577-13.3713 2.7947-13.3713 27.2412l-47.4783.3043 1.4909-4.0409c5.143-22.4065 17.109-24.1565 17.109-24.1565z" fill="#53565a"/><path d="m38.6252 16.4302c26.6728-2.3655 39.1507 3.154 39.1507 3.154l.0325 9.2446s-21.1317-3.7665-30.3921-4.2639c-10.0496-.5398-21.2588 1.4549-21.2588 1.4549s3.3348-8.7797 12.4677-9.5896z" fill="#3a3b42"/><path d="m72.3244 17.4034c-11.2833 2.7291-9.2241 18.9612-9.2134 27.0791l18.6239 11.0881s1.9839-4.7379 2.5966-11.0927c.4928-5.111-1.3023-29.6636-12.0071-27.0745z" fill="#313238"/><path d="m26.0661 15.8738 9.9113-.0348.005 1.4299s-11.9894 5.4763-11.9116 27.6186l-8.5802.0301c-.086-24.3768 10.5755-29.0438 10.5755-29.0438z" fill="#c9c6c1"/><path d="m63.3862 15.0494 10.1751.5133c-7.2842 8.7231-11.0247 15.2914-10.1453 28.176l-9.2037.0324c-1.1857-21.3476 9.1739-28.7217 9.1739-28.7217z" fill="#c9c6c1"/><path d="m25.6496 15.8757 9.3731-.033s-5.4943 4.1409-7.3832 8.2104l-8.3705.0294c1.5995-5.1857 6.3806-8.2068 6.3806-8.2068z" fill="#e0ddd7"/><path d="m63.8871 14.7815 8.7647-.0308s-4.8024 2.4536-6.9868 8.3521l-8.2187.0288c1.5892-5.2763 6.4408-8.3501 6.4408-8.3501z" fill="#e0ddd7"/><path d="m60.8983 37.1857c.6821-12.396 6.1209-20.2889 11.1973-22.2703l.0167 4.7539c-2.8011.849-7.6658 9.4371-8.639 18.8396-.2448 2.3647-.3658 2.7139-.0001 6.6518h-2.2656c-.3485-3.8174-.503-4.4548-.3093-7.975z" fill="#b5ab9d"/><path d="m84.6342 41.1213c.6111-9.9607-1.6151-18.1795-5.7198-22.2512-2.6705-3.2978-6.9338-4.0062-6.9338-4.0062l.0171 4.8572c3.7628.4519 10.1115 3.3339 9.4752 21.4113-.5311 15.0906-2.3934 24.7085-2.3934 24.7085l2.4766-1.0422s2.2349-9.9311 3.0781-23.6774z" fill="#9a9a9a"/><path d="m81.7721 42.909c.313-9.2434-.8887-16.874-3.0893-20.6585-1.4325-3.0642-6.6358-4.234-6.6358-4.234l.0052 1.4985c6.2557 1.4249 8.3447 6.6238 8.0295 23.3999-.2631 14.0042-1.2456 22.9276-1.2456 22.9276l1.3228-.9638s1.1813-9.2136 1.6132-21.9697z" fill="#b4b2af"/></g><path d="m81.7767 45.7521 2.589-.6508-.1273 4.6403-.2547 4.6403-2.886 1.6694z" fill="#9a9a9a"/><path d="m80.1007 45.7522 1.506.7357v4.3007l-.4527 5.2628-1.4431-.1273z" fill="#b4b2af"/><path d="m66.6966 41.3689 13.4382 4.383-.3254 8.9694-15.9422-10.6361z" fill="#313238"/><path d="m64.0088 43.3354 17.4843 11.2728-.3661 1.6437-16.7504-10.469z" fill="#9a9a9a"/><path d="m21.8213 43.9722 14.2353 8.6506-.6539 1.8184-16.7504-10.469z" fill="#9a9a9a"/><path d="m63.6133 42.4302 16.807 11.1622 1.1583 1.0725-17.5692-11.0322z" fill="#a5b7be"/><path d="m15.22 43.934 48.9301-.273 1.019 2.5181-51.9762.2979c.0029-1.6225 2.0271-2.543 2.0271-2.543z" fill="#c9c6c1"/><path d="m15.7223 42.6234 47.8915-.1683.5089 1.2039-48.9835.2365z" fill="#e0ddd7"/><path d="m25.6699 46.4771 39.2729-.3545 9.7334 6.1655h-39.5559z" fill="#1d1d21"/><path d="m32.1097 54.8887h48.0177l-16.863 5.9961h-47.4714z" fill="url(#c)"/><path d="m31.1771 55.825h48.0177l-16.863 5.9961h-47.4714z" fill="url(#d)"/><path d="m28.6717 34.5991c.0964-1.6215 1.4868-2.8593 3.1086-2.7673l9.8408.5583c1.6281.0923 2.8716 1.4892 2.7748 3.117l-.6398 10.764c-.0454.7634-.3858 1.4793-.9493 1.9964l-1.7772 1.6309c-.5883.5398-1.3704.8178-2.1674.7704l-6.4904-.3858c-.797-.0474-1.5406-.4161-2.0608-1.0218l-1.5715-1.83c-.4983-.5801-.7515-1.3313-.7061-2.0948z" fill="#fff"/><path d="m30.6158 36.9175c.0964-1.6217 1.4869-2.8595 3.1088-2.7673l5.6893.323c1.628.0925 2.8714 1.4894 2.7746 3.1171l-.3907 6.5722c-.046.7746-.3957 1.4998-.9732 2.0181l-.8119.7288c-.5858.5258-1.3576.7954-2.1434.7487l-4.1566-.2471c-.7858-.0467-1.5202-.4058-2.0396-.9973l-.7198-.8199c-.512-.5831-.7734-1.3446-.7273-2.1192z" fill="#e0ddd7"/><ellipse cx="36.379" cy="39.6414" fill="#36260e" rx="2.29108" ry="2.39958" transform="matrix(.99823784 .05933982 -.05933982 .99823784 2.416419 -2.088869)"/><path d="m36.4257 38.8427 1.6247 6.1062-3.9613-.2355z" fill="#36260e"/><ellipse cx="45" cy="52.5" fill="url(#e)" fill-opacity=".8" rx="45" ry="17.5"/></svg>