<svg fill="none" height="100" viewBox="0 0 100 100" width="100" xmlns="http://www.w3.org/2000/svg" xmlns:xlink="http://www.w3.org/1999/xlink"><filter id="a" color-interpolation-filters="sRGB" filterUnits="userSpaceOnUse" height="7.03593" width="38.334" x="20.4658" y="71.5151"><feFlood flood-opacity="0" result="BackgroundImageFix"/><feColorMatrix in="SourceAlpha" result="hardAlpha" type="matrix" values="0 0 0 0 0 0 0 0 0 0 0 0 0 0 0 0 0 0 127 0"/><feOffset dy="-.852828"/><feComposite in2="hardAlpha" operator="out"/><feColorMatrix type="matrix" values="0 0 0 0 0.616667 0 0 0 0 0.616667 0 0 0 0 0.616667 0 0 0 1 0"/><feBlend in2="BackgroundImageFix" mode="normal" result="effect1_dropShadow_564_3204"/><feBlend in="SourceGraphic" in2="effect1_dropShadow_564_3204" mode="normal" result="shape"/></filter><filter id="b" color-interpolation-filters="sRGB" filterUnits="userSpaceOnUse" height="13.6453" width="17.5498" x="63.418" y="64.9821"><feFlood flood-opacity="0" result="BackgroundImageFix"/><feColorMatrix in="SourceAlpha" result="hardAlpha" type="matrix" values="0 0 0 0 0 0 0 0 0 0 0 0 0 0 0 0 0 0 127 0"/><feOffset dy="-.852828"/><feComposite in2="hardAlpha" operator="out"/><feColorMatrix type="matrix" values="0 0 0 0 0.479167 0 0 0 0 0.479167 0 0 0 0 0.479167 0 0 0 1 0"/><feBlend in2="BackgroundImageFix" mode="normal" result="effect1_dropShadow_564_3204"/><feBlend in="SourceGraphic" in2="effect1_dropShadow_564_3204" mode="normal" result="shape"/></filter><path d="m35.8262 23.5801c12.5228-2.8874 41.7512.8256 41.7512.8256-.8839.9847-13.327 6.6006-14.1984 28.3621-.4118 10.2851 1.7705 25.7836 1.7705 25.7836h-36.4329s-13.722-12.933-9.8824-30.1157c5.1605-23.0939 16.992-24.8556 16.992-24.8556z" fill="#515458"/><path d="m38.3623 22.61c26.3678-2.3433 38.6799 3.3953 38.6799 3.3953v9.536s-20.8703-3.9619-30.0202-4.5085c-9.9298-.5932-21.0142 1.4237-21.0142 1.4237s3.3261-9.0442 12.3545-9.8465z" fill="#3a3b42"/><path d="m72.3969 23.7342c-10.468 2.7741-11.3092 23.3896-11.3258 31.7633-.0136 6.9 4.8858 22.1676 4.8858 22.1676l14.4756-4.9831s2.7171-14.3691 3.3058-20.9219c.4734-5.2702-1.4101-30.6578-11.3414-28.0259z" fill="#313238"/><g filter="url(#a)"><path d="m20.4658 72.3679h38.3335v6.18301h-38.3335z" fill="#e0dedb"/></g><g filter="url(#b)"><path d="m63.418 72.4752 17.5503-6.6402-1.1547 7.3556-14.3173 5.4368z" fill="#b4b2af"/></g><path d="m25.9525 21.991h9.7951v1.475s-11.8677 5.6052-11.8677 28.4455c0 11.1127 3.7686 26.7168 3.7686 26.7168h-8.385s-3.8629-12.9841-3.8631-26.7168c-.0004-25.1452 10.5521-29.9205 10.5521-29.9205z" fill="#c9c6c1"/><path d="m62.835 21.2749 10.0538.5663c-7.2289 8.9716-10.9483 15.7333-10.124 29.027.6999 11.2884 2.3973 27.6411 2.3973 27.6411h-9.1129s-1.8335-16.6735-2.3801-27.6411c-1.0977-22.0244 9.1659-29.5933 9.1659-29.5933z" fill="#c9c6c1"/><path d="m25.5392 21.991h9.2632s-5.4441 4.2514-7.325 8.4423h-8.2723c1.5987-5.3434 6.3341-8.4423 6.3341-8.4423z" fill="#e0ddd7"/><path d="m63.3327 21h8.6618s-4.7545 2.5135-6.9337 8.5899h-8.1223c1.5889-5.4368 6.3942-8.5899 6.3942-8.5899z" fill="#e0ddd7"/><path d="m30.9521 53.5667c0-1.3282 1.075-2.4058 2.4032-2.4091l9.3629-.023c1.3328-.0033 2.415 1.0763 2.415 2.4091v8.7474c0 .6655-.2753 1.3014-.7606 1.7568l-1.583 1.4854c-.4466.4191-1.036.6524-1.6485.6524h-6.1968c-.6125 0-1.2019-.2333-1.6485-.6524l-1.583-1.4854c-.4853-.4554-.7607-1.0913-.7607-1.7568z" fill="#000" fill-opacity=".2"/><path d="m60.3007 44.0996c.7172-12.7841 6.1195-20.9059 11.1431-22.9314v4.9038c-2.7711.8656-7.6085 9.7066-8.603 19.4018-.8091 7.8887 2.7289 28.9212 2.7289 33.0788h-1.3992s-4.6772-20.0616-3.8698-34.453z" fill="#b5ab9d"/><path d="m83.7443 48.2456c.6384-10.2724-1.533-18.7582-5.5754-22.9731-2.6277-3.4113-6.8384-4.1575-6.8384-4.1575v5.0104c3.7171.4797 9.9811 3.4755 9.2896 22.1202-.5774 15.5641-2.4512 25.4782-2.4512 25.4782l2.4512-1.066s2.2431-10.236 3.1242-24.4122z" fill="#9e9e9e"/><path d="m80.9088 50.0782c.3414-9.5335-.8197-17.4088-2.9812-21.3205-1.4051-3.1659-6.5432-4.3915-6.5432-4.3915v1.5458c6.1772 1.4924 8.2237 6.8627 7.8539 24.1662-.3087 14.4445-1.3107 23.6454-1.3107 23.6454l1.3107-.9893s1.1994-9.4996 1.6705-22.6561z" fill="#b4b2af"/><path d="m15.1286 55.0981h48.8572l1.395 3.3747-1.395 3.8352h-48.8572s-1.1834-2.2717-1.1266-3.8352c.0506-1.3925 1.1266-3.3747 1.1266-3.3747z" fill="#c9c6c1"/><path d="m15.6254 54.2153h47.7924v1.3101h-48.3787z" fill="#ededed"/><path d="m15.0391 62.3171h48.3787v1.3101h-47.7924z" fill="#7a7a7a" fill-opacity=".62"/><path d="m63.324 54.8865 21.9158-6.6411s-.0156 2.2177 0 3.1193c.017.9787-1.2504 4.3268-1.2504 4.3268l-21.38 7.0436s1.4273-3.4176 1.3948-4.528c-.0284-.9727-.6802-3.3206-.6802-3.3206z" fill="#b5ab9d"/><path d="m63.418 54.2169 20.8401-6.6544.8668.7362-21.7069 7.2491z" fill="#e2e2e2"/><path d="m62.9564 62.3188 20.0904-6.3979v1.066l-20.6884 6.5478z" fill="#5a5a5a" fill-opacity=".55"/><path d="m14.2305 60.2149h49.4179l21.3605-6.2129" stroke="#000" stroke-opacity=".1" stroke-width=".852828"/><path d="m30 52.4432c0-1.328 1.0746-2.4055 2.4026-2.4091l10.1818-.0276c1.333-.0036 2.4156 1.0761 2.4156 2.4091v10.8285c0 .6252-.2431 1.226-.6778 1.6753l-1.8264 1.8875c-.4538.469-1.0786.7338-1.7313.7338h-6.529c-.6527 0-1.2775-.2648-1.7313-.7338l-1.8264-1.8875c-.4347-.4493-.6778-1.0501-.6778-1.6753z" fill="#fff"/><path d="m31.9795 54.5374c0-1.328 1.0747-2.4056 2.4027-2.4091l6.2218-.0164c1.333-.0036 2.4155 1.0761 2.4155 2.4091v6.8319c0 .6343-.2502 1.2431-.6963 1.6941l-.9622.9728c-.4526.4575-1.0693.715-1.7128.715h-4.2974c-.6435 0-1.2602-.2575-1.7128-.715l-.9622-.9728c-.4461-.451-.6963-1.0598-.6963-1.6941z" fill="#e0ddd7"/><g fill="#36260e" opacity=".7"><ellipse cx="37.6106" cy="57.1964" rx="2.18193" ry="2.28526"/><path d="m37.6106 56.4346 1.8896 5.7131h-3.7792z"/></g></svg>