<svg fill="none" height="230" viewBox="0 0 375 230" width="375" xmlns="http://www.w3.org/2000/svg" xmlns:xlink="http://www.w3.org/1999/xlink"><clipPath id="a"><path d="m0 0h375v230h-375z"/></clipPath><clipPath id="b"><path d="m-13.2402 0h638.36v638.36h-638.36z"/></clipPath><g clip-path="url(#a)"><path d="m0 0h375v230h-375z" fill="#4672b8"/><g clip-path="url(#b)"><path d="m-13.2402 638.36v-638.36h638.3602v638.36z" fill="#c48658"/><path d="m11.2152 578.5v-638.3599" stroke="#b4754b" stroke-width="2.95537"/><path d="m70.6175 578.5v-638.3599" stroke="#b4754b" stroke-width="2.95537"/><path d="m130.021 578.5v-638.3599" stroke="#b4754b" stroke-width="2.95537"/><path d="m189.424 578.5v-638.3599" stroke="#b4754b" stroke-width="2.95537"/><path d="m248.827 578.5-.001-638.3599" stroke="#b4754b" stroke-width="2.95537"/><path d="m308.23 578.5v-638.3599" stroke="#b4754b" stroke-width="2.95537"/><path d="m367.633 578.5v-638.3599" stroke="#b4754b" stroke-width="2.95537"/><path d="m85.3297 167.707c-.5912-30.748.2366-61.553 1.3596-92.2279.0079-.5048.4505-.7103.7313-.7103.149 0 .3657.0486.5289.2351.1446.1652.1808.3606.1604.5306 1.2392 30.6715 1.1788 61.5855-1.0677 92.2095l-.002.027-.0045.027c-.0775.465-.4596.759-.8711.759-.2004 0-.4153-.071-.5827-.235-.1711-.168-.2506-.39-.2522-.615z" fill="#b4754b"/><path clip-rule="evenodd" d="m114.175 71.0581c.236 44.3199.827 88.7229-.828 133.0079-.004.266-.125.495-.314.647-.178.142-.388.196-.573.196-.184 0-.394-.054-.572-.196-.191-.153-.312-.385-.314-.653-.946-44.284.236-88.745 1.123-133.0075.002-.1834.062-.3765.206-.5296.143-.1522.337-.2312.533-.2312.195 0 .39.079.532.2312.145.1546.206.3502.207.5352zm-1.183.002v.0031z" fill="#b4754b" fill-rule="evenodd"/><path d="m99.0422 176.152c-.1497-.199-.4082-.413-.7536-.413-.183 0-.365.063-.5109.193-.1264.113-.2013.252-.2419.386-1.0318 18.981.6245 45.011.621 64.121l.0016.022.0018.014c.0734.588.5691.873.9929.873.2131 0 .4488-.068.6399-.236.2025-.177.313-.431.313-.71v-.008-.008c-1.0638-5.847 2.532-31.328-.9766-64.068l-.0303-.09z" fill="#b4754b"/><path d="m265.554-15.2579c-.177-.5314-.688-.6801-1.074-.6054-.374.0724-.791.3842-.795.9152-.684 22.41544 1.005 44.8914.887 67.3287v.0023c0 .4924.433.7156.7.7619.152.0264.337.0195.508-.063.188-.0902.341-.2647.382-.5078l.001-.0062.001-.0063c.91-21.06 2.467-46.3603-.598-67.7754l-.005-.0223z" fill="#b4754b"/><path d="m277.626 4.99413c-.167-.08339-.348-.08989-.501-.03883-.075.02499-.157.06838-.227.13848-.062.06243-.137.16958-.149.31576-1.47 13.32636-.173 26.04036.235 38.11546.003.1805.071.3539.207.4807.133.1235.299.1742.451.1742.305 0 .619-.2071.693-.5781l.008-.0391.001-.0398c.229-12.7062 1.241-25.5517-.477-38.19197l-.032-.23207z" fill="#b4754b"/><path d="m288.257 23.0436c.594-.0222.98.502 1.02 1.1169-.121 25.3136-.537 51.2739-1.657 75.3503v.0007c-.023.1882-.096.3841-.257.5245-.169.147-.383.186-.574.14-.358-.085-.582-.4289-.584-.7936-.474-24.8455-.112-50.3099 1.064-75.1319v-.0043c.037-.6389.401-1.1806.988-1.2026z" fill="#b4754b"/><path clip-rule="evenodd" d="m337.986 205.269c-.236 20.812-.827 41.662.828 62.457.004.125.124.233.314.304.177.066.388.092.572.092s.395-.026.573-.092c.19-.072.311-.181.314-.307.946-20.794-.237-41.672-1.123-62.457-.002-.086-.063-.176-.206-.248s-.338-.109-.533-.109c-.196 0-.39.037-.533.109-.145.072-.205.164-.206.251zm1.182.001v.001z" fill="#b4754b" fill-rule="evenodd"/><path d="m349.854 218.84c-.594-.022-.981.502-1.02 1.117.027 24.574.595 50.571 1.657 75.35v.001c.023.188.096.384.256.524.17.148.384.186.574.141.359-.085.583-.429.585-.794.474-24.845.112-50.31-1.064-75.132v-.004c-.037-.639-.401-1.181-.988-1.203z" fill="#b4754b"/><path d="m167.401 46.3372c.59 0 .76.5288.768.7654.355 14.795 2.009 29.5443 1.773 44.3562-.002.2994-.146.553-.355.7127-.191.1455-.409.1955-.59.1955-.182 0-.399-.05-.59-.1955-.202-.1536-.342-.394-.355-.6784-1.242-14.7484-.71-29.566-1.419-44.3373l-.001-.0177v-.0178c0-.2266.163-.7831.769-.7831z" fill="#b4754b"/><path d="m175.035 66.765c.59-.0326.73-.57.725-.8066-.461-14.7922.379-29.6101-.673-44.3866-.019-.2987-.176-.5441-.394-.692-.199-.1348-.419-.1727-.6-.1627s-.396.0719-.578.2277c-.193.1644-.32.4122-.317.6969-.428 14.7944.92 29.5602 1.026 44.3482v.0177l.001.0177c.012.2263.205.773.81.7397z" fill="#b4754b"/><path d="m71.3801 54.0957c4.4921 1.3594 9.3389 1.0639 14.0084 1.123 5.0833.0591 10.1074 0 15.1315-.2955 10.107-.5911 20.156-.1182 30.263-.4138.709 0 .709-1.123 0-1.123-10.107-.2955-20.156.1773-30.263-.4138-5.0832-.2955-10.0482-.3546-15.1315-.2955-4.6695.0591-9.5163-.2364-14.0084 1.123-.1774 0-.1774.2365 0 .2956z" fill="#b4754b"/><path d="m308.703 152.804c4.381.946 9.006.65 13.449.709 5.05.059 10.162.119 15.213.178 9.98.118 19.899-.473 29.819-.414.669 0 .669-1.005 0-1.005-9.92-.059-19.839-.768-29.819-.709-4.868 0-9.737 0-14.605.059-4.686 0-9.493-.296-14.057.591-.304.059-.304.532 0 .591z" fill="#b4754b"/><path d="m191.413 88.7765c4.255.9457 8.747.6502 13.062.7093 4.906.0591 9.871.1182 14.777.1773 9.694.1182 19.328-.4728 28.963-.4137.65 0 .65-1.0049 0-1.0049-9.635-.0591-19.269-.7684-28.963-.7093-4.728 0-9.457.0001-14.186.0592-4.551 0-9.22-.2956-13.653.591-.296.0591-.296.532 0 .5911z" fill="#b4754b"/><path d="m-40.3498 136.166c8.4523.118 16.8456.296 25.2388-.059 4.1375-.177 8.21595-.355 12.35347-.473 4.37394-.118 8.62969 1.064 12.94453.532.8275-.118 1.3004-1.537.2364-1.655-4.01926-.532-7.92038.532-11.99879.473-4.31484-.059-8.62971-.355-12.94451-.532-8.6297-.355-17.2002-.296-25.8299-.177-1.2413 0-1.2413 1.891 0 1.891z" fill="#b4754b"/><path d="m11.2109 190.904c9.6795 1.135 20.0504.284 29.8451.284h16.0173c4.6093 0 9.449.568 13.8278-.567.4609-.095.4609-.568 0-.757-4.3788-1.135-9.3338-.662-13.8278-.662-5.3007 0-10.7166 0-16.0173.095-9.7947.189-20.2808-.379-29.8451 1.229-.2304.095-.2304.378 0 .378z" fill="#b4754b"/><path d="m130.782-63.4087h-59.9939v117.3873h59.9939z" fill="#b4754b" opacity=".3"/><path d="m367.685-142.317h-59.994v294.178h59.994z" fill="#b4754b" opacity=".3"/><path d="m249.943 89.0886h-59.994v294.1774h59.994z" fill="#b4754b" opacity=".3"/><path d="m11.0384 135.607h-59.994v252.183h59.994z" fill="#b4754b" opacity=".3"/><path d="m182.42-138.735c14.232 23.848 30.015 46.5941 45.921 69.2431 15.905 22.6491 32.179 45.0081 48.765 67.16062 33.159 44.23448 67.529 87.43148 103.179 129.57828 10.026 11.842 20.161 23.517 30.351 35.108 5.041 5.696 10.082 11.392 15.245 16.992 5.34 5.785 10.543 11.963 17.081 16.274 2.012 1.298 4.843-.855 3.607-3.254-3.136-6.061-7.633-11.13-12.076-16.282-4.538-5.28-9.062-10.489-13.668-15.756-8.953-10.291-17.866-20.736-26.765-31.111-17.906-20.947-35.581-42.1589-52.957-63.6477-34.806-42.8938-68.495-86.5873-101.11-131.2922-18.27-25.0512-35.846-50.5281-54.538-75.2061-1.181-1.75-4.189.218-3.035 2.193z" fill="#9a5c2b"/><path d="m295.371 29.2181c2.837 4.2705 7.938 2.7013 10.631.9226 2.767-1.7405 4.713-4.8408 4.807-8.634.06-2.103-1.514-4.4463-3.38-5.4023-1.791-.9178-4.396-.716-5.128 1.0429-.396.9514-.787 1.8638-1.221 2.6185-.644 1.1211-.664 1.1961-1.6 1.8262-.326.26-1.309.4389-1.784.6225-1.594.549-2.41.4471-3.282 3.013-.421 1.2358.245 2.8572.957 3.9906z" fill="#5b2a02"/><path d="m248.244-162.229c7.394 21.787 17.877 42.848 27.922 63.4496 10.151 20.8116 20.42 41.4528 30.973 62.048 21.059 40.89562 43.253 81.1535 67.565 120.0852 6.798 10.9204 13.798 21.7322 21.129 32.3402 7.046 10.199 14.389 20.88 23.835 28.801 1.008.819 2.261-.442 1.797-1.501-4.371-10.331-11.132-19.67-17.3-28.953-6.359-9.555-12.789-19.099-19.089-28.7392-12.611-19.3542-24.643-39.1804-36.261-59.1493-22.879-39.5419-43.973-80.2049-64.511-121.0338-5.817-11.6087-11.694-23.1327-17.57-34.6557-5.662-11.105-11.633-22.311-18.49-32.692z" fill="#9a5c2b"/><path d="m342.801 19.7556c-1.615.9109-3.941.2914-5.579 2.3422-1.886 2.3599.873 4.7831 1.39 5.571.646.9849.556 2.7153 2.875 4.0086 2.32 1.2933 5.353 1.2654 7.182-.6077 1.829-1.8732 2.864-4.3594 2.281-6.9543-.583-2.595-2.376-5.6435-3.887-5.8158-1.512-.1723-2.648.5451-4.262 1.456z" fill="#5b2a02"/><path d="m353.507 89.2107c3.225-3.56 6.685-2.5081 8.716-.9538 1.187.9089 2.361 3.0577 3.298 4.0146 1.734 1.7725 1.999 6.691-.989 9.5635-3.811 3.665-10.641 1.041-13.348-4.0494-1.172-2.2054-.902-5.0148 2.323-8.5749z" fill="#5b2a02"/><path d="m-37.4497 262.308c3.4282-1.537 6.1472-4.315 8.7479-6.975 2.9554-3.014 5.5561-6.442 8.1568-9.752 4.9059-6.266 9.3981-12.827 13.53562-19.565 8.51146-13.89 15.48614-28.726 21.69238-43.799 13.5947-32.922 24.3523-67.205 34.5779-101.3098 2.9553-9.9891 5.9107-19.9783 8.6296-29.9674 8.5067-31.2529 13.5455-68.0742 14.3961-76.1553.565-5.3679 1.962-25.5015 1.962-30.9014 0-1.5959-2.2461-2.2461-3.0736-.8275-2.2347 4.0751-4.5292 23.6356-5.2649 30.1347-.5656 4.9964-6.867 46.5977-14.6987 72.3116-2.6872 8.8231-5.1423 17.7913-7.8022 26.5983-5.3196 17.7323-10.8166 35.3468-16.6092 52.9008-10.2255 31.032-20.68754 62.241-36.17368 91.085-4.19662 7.802-8.74792 15.309-13.83112 22.579-2.6598 3.783-5.4379 7.507-8.3933 11.053-2.778 3.369-5.9698 6.797-7.6839 10.817-.4138 1.241.6502 2.305 1.8323 1.773z" fill="#9a5c2b"/><path d="m.230607-49.206c-2.127867 1.2412-1.907117 14.0398-1.998357 16.3621-.67166 17.0944-1.57761 40.02919-4.7103 65.8739-.70929 5.8516-1.53679 17.614-2.54162 23.4657-1.95053 11.7032-4.19663 23.3474-7.03383 34.8733-5.556 22.756-12.8854 45.099-22.1061 66.673-2.6599 6.206-5.4379 12.294-8.3933 18.323-2.8962 5.911-6.2654 11.645-8.3341 17.91-.7093 2.128 2.3643 4.019 3.842 2.246 3.7828-4.551 6.3245-9.812 8.9843-15.072 2.7189-5.379 5.2606-10.817 7.7431-16.314 4.9059-10.935 9.398-21.988 13.3582-33.277 7.9204-22.579 13.83117-45.8086 17.61404-69.3925 1.06393-6.5609 1.89143-19.0917 2.541614-25.7117 2.941526-29.95012 4.106396-54.2791 4.106396-69.5977 0-7.4244.65172-14.2343-1.77168-16.1848-.35465-.3547-.827504-.4729-1.300363-.1773z" fill="#9a5c2b"/><path d="m-48.0897 72.5143c3.3627 3.3627 5.3553 5.6116 10.2847 7.152 4.2558 1.3595 8.807 1.8915 13.2401 1.5959 3.3779-.1987 6.4229-1.1511 9.6345-2.0687 1.8323-.4729 2.6007.1182 3.842 1.3594 2.95534 3.0736 5.79249 5.7334 9.57537 7.8022 7.50663 4.0784 16.43183 5.497 24.82513 4.0193 4.4921-.8275 8.6297-2.8963 12.5307-5.1423 3.8413-2.2117 8.585-3.7295 12.058-6.4427 1.1821-.9458.2955-2.6599-.8276-3.0736-4.0193-1.4777-8.3341.8866-11.9396 2.6007-3.9602 1.8914-7.7431 3.9011-12.058 4.9059-7.9203 1.8323-16.3136.8275-23.465593-3.1918-3.487337-1.9505-6.206277-5.0832-9.693607-6.9747-3.9011-2.1278-7.6249.2956-11.5259 1.1231-4.374.8866-8.9844.8275-13.3583-.2364-3.8045-.9512-9.1342-2.336-12.5899-4.2558-.4137-.2364-.8866.4138-.532.8275z" fill="#9a5c2b"/><path d="m7.64904 192.029c5.14236-3.073 8.74786-8.866 12.41256-13.535 3.7238-4.729 7.3293-9.517 10.9349-14.364 7.5657-10.107 14.895-20.333 21.8697-30.854 13.6538-20.746 26.0073-42.4978 34.8734-65.727 2.4187-6.3123 11.4339-28.7628 16.8124-52.7589 5.399-24.08895 7.156-49.7248 6.563-56.5945-.118-1.3595-2.128-2.2461-2.837-.7684-2.706 5.6282-5.534 31.6166-10.9677 55.5287-5.0089 22.0437-12.6669 42.1157-14.5949 47.5593-4.0784 11.5259-8.9843 22.7564-14.5404 33.6912-11.2304 22.0466-24.9433 42.7936-39.1882 62.9496-3.9011 5.556-7.9795 10.994-11.9397 16.55-3.7829 5.26-9.04342 10.994-10.81664 17.318-.17732.71.70929 1.419 1.41858 1.005z" fill="#9a5c2b"/><path d="m-2.86277 146.63c4.90592 2.483 10.46201 3.961 16.01807 3.488 4.7286-.414 11.2304-2.128 12.4126-7.448.1773-.886-.532-1.537-1.4186-1.418-3.7829.709-7.0929 3.014-10.994 3.487-4.43302.532-8.92518-.473-12.944485-2.364-4.314835-2.01-8.215925-4.847-11.939715-7.921-18.4112-15.001-3.2775 5.978 8.86613 12.176z" fill="#9a5c2b"/><path d="m4.221 179.262c-1.95055 2.778.94572 6.029 3.13269 7.566 2.18697 1.596 5.02411 2.364 7.68401 1.714 1.4776-.355 2.5416-1.891 2.5416-3.369 0-1.419-1.064-3.192-2.5416-3.369-.7993-.096-1.5697-.196-2.2461-.355-1.0049-.236-1.064-.236-1.8324-.768-.2955-.178-.7684-.828-1.06389-1.123-.94572-1.005-1.16466-1.592-3.25091-1.714-1.00482-.06-1.89144.709-2.4234 1.418z" fill="#351411"/><path d="m-15.5677 213.745c-3.7094 2.518-1.9855 7.24-.4065 9.579 1.5462 2.404 4.2742 4.079 7.5919 4.128 1.83952.034 4.34077-.938 5.52182-2.607 1.898612-2.684 1.17849-6.519-2.11136-8.044-2.10126-.974-4.13042-.455-6.12986-2.781-.9112-1.06-3.4812-.908-4.466-.275z" fill="#5b2a02"/><path d="m-7.74676 85.2514c-5.14884 1.0679-7.58974-1.8307-8.42884-4.3096-.4907-1.4495-.0001-3.9664-.4195-5.2631-.3098-.958-.7598-3.0368.4194-4.7299 1.4876-2.1359 4.3481-2.9362 6.52204-2.6311 2.17395.3051 4.41043 1.543 5.98784 3.4709 2.746041 3.3563 3.775805 5.1865 3.432551 7.7037-.343256 2.5172-2.364651 4.6912-7.513491 5.7591z" fill="#5b2a02"/><path d="m40.5028 74.1526c3.8776-2.7865 6.9306-1.4652 8.509.1395.923.9384 1.5514 2.9725 2.2247 3.925 1.247 1.7643.3809 6.1469-3.115 8.352-4.4593 2.8128-10.3607-.2799-11.7783-5.0902-.6142-2.0841.2821-4.5398 4.1596-7.3263z" fill="#5b2a02"/><path d="m-43.5079-.470559c-.3509-.478372-.7033-.958761-1.1936-1.374251-.4185-.41373.1395-1.06393.6277-.82749 4.2924 2.020971 10.3045 3.291483 14.8556 4.25571 5.1611 1.06396 10.6011 1.12305 15.7622.23644 1.2154-.21848 2.4161-.54821 3.61-.876039 3.32795-.9138841 6.60241-1.81305 9.990205-.247014 4.114915 1.891433 7.323155 5.024213 11.438095 6.974703 8.4391 4.0193 18.3428 5.0241 27.6886 3.1918 5.2966-1.04537 10.2507-3.27925 15.2239-5.311 15.1709-6.196937 11.8529 2.49081 23.6431 7.9819 4.0194 1.8915 8.5115 2.8963 12.9446 2.3643 3.9011-.4728 7.2111-2.778 10.9935-3.4873.887-.1183 1.596.5319 1.419 1.4185-1.182 5.3197-7.6839 7.0338-12.4125 7.4476-5.5561.4728-11.1122-1.0049-16.0181-3.4873-4.4724-2.2828-8.394-5.4468-12.141-8.79753-2.9483 1.10583-5.7603 2.50103-8.5877 3.88043-4.6032 2.2461-9.4853 4.3149-14.7859 5.1424-9.9037 1.4777-20.4351.0591-29.2926-4.0193-4.46369-2.0688-7.81142-4.72863-11.29865-7.80219-1.46463-1.24127-2.37131-1.83235-4.53339-1.3595-3.78844.91739-7.42526 1.87224-11.36836 2.06876-5.2308.29554-10.6012-.23637-15.6228-1.59587-3.7222-.98578-8.5405-2.50436-10.9419-5.777759z" fill="#9a5c2b"/><path d="m-1.5552 10.9232c4.34583.9228 6.40604-1.58196 7.11431-3.72403.41416-1.25258.00005-3.42752.35403-4.54809.26151-.82787.64137-2.6241702-.354-4.08731-1.2556-1.84567-3.66994-2.53728-5.5048445-2.27362-1.8349055.26366-3.7225855 1.33334-5.0539855 2.999356-2.31777 2.900284-3.18694 4.481864-2.89721 6.657084.28972 2.17521 1.99586 4.05381 6.3417 4.97661z" fill="#5b2a02"/><path d="m60.3287-.859174c3.605-2.408456 6.7473-.907866 8.4517.75842.9966.974367 1.7958 2.986054 2.546 3.955824 1.3894 1.79625.9093 5.96771-2.3673 7.84223-4.1798 2.3912-10.3006-1.0298-12.1226-5.78191-.7894-2.05881-.1128-4.36611 3.4922-6.774564z" fill="#5b2a02"/></g></g></svg>