<svg fill="none" height="36" viewBox="0 0 36 36" width="36" xmlns="http://www.w3.org/2000/svg"><path id="OUTLINE" clip-rule="evenodd" d="m32 0h-28c-2.209 0-4 1.791-4 4v18 1 9c0 2.209 1.791 4 4 4h28c2.209 0 4-1.791 4-4v-9-1-18c0-2.209-1.791-4-4-4z" fill="#d9d9d9" fill-rule="evenodd"/><path d="m32 0h-28c-2.209 0-4 1.791-4 4v19h36v-19c0-2.209-1.791-4-4-4z" fill="#ffcc4d"/><path d="m32.114 18.7361c1.587-.451 1.587-1.147.001-1.599l-.559-.154-.556-.163v.005l-2.94-.891 2.323-1.934h-.014l.493-.322.497-.359c1.291-1.023 1.008-1.686-.629-1.498l-.636.089-.632.09h-.002l-2.979.339 1.77-3.18003.309-.558c.802-1.44.281-1.963-1.158-1.163l-.558.282-.556.28h-.002l-2.626 1.489.34-2.946v-.003l.08-.632.077-.638c.188-1.634-.492-1.915-1.516-.623l-.394.499-2.257 2.85-.819-2.881-.002-.005-.348-1.225c-.451-1.587-1.19-1.587-1.642 0l-.174.612-.174.613-.821 2.886-1.861-2.35-.001-.001-.395-.499-.397-.501c-1.023-1.29-1.704-1.007-1.515.629l.074.634.073.632v.001l.346 2.979-3.177-1.77-.55699-.31c-1.441-.803-1.963-.281-1.161 1.16l.31.556 1.77 3.17703-2.97901-.346h-.00099l-.632-.073-.63501-.074c-1.636-.189-1.91799.492-.62899 1.515l.501.397.499.395.001.001 2.35 1.861-2.884.822-.612.174-.612.174c-1.587.452-1.587 1.19 0 1.642l1.225.348.00399.002 2.88101.819-2.85101 2.258-.49899.396c-1.29201 1.023-1.011 1.705.623 1.517l.638-.08.632-.081h.00199l2.94801-.34-1.489 2.626v.002l-.28.556-.296.558c-.8 1.44-.271 1.96 1.169 1.158l.56-.309 3.18499-1.77-.338 2.979v.002l-.08.632-.077.635c-.189 1.637.491 1.918 1.514.627l.396-.5.395-.5 1.862-2.352.82 2.885v.001l.174.612.175.613c.452 1.586 1.105 1.586 1.557-.001l.264-1.224v-.004l.905-2.882 1.905 2.352.416.5.407.5c1.022 1.29 1.71 1.01 1.521-.625l-.078-.637-.076-.633v-.003l-.34-2.947 2.624 1.489h.002l.557.28.558.295c1.44.803 1.963.272 1.16-1.167l-.28-.561-.281-.557v-.002l-1.489-2.628 2.947.34h.003l.633.08.637.077c1.635.189 1.915-.492.625-1.515l-.5-.396-.5-.395-2.352-1.947 2.882-.904h.004z" fill="#f4900c"/><path d="m18 27.6301c5.3185 0 9.63-4.3115 9.63-9.63s-4.3115-9.62998-9.63-9.62998-9.63 4.31148-9.63 9.62998 4.3115 9.63 9.63 9.63z" fill="#ffe8b6"/><path d="m0 22v10c0 2.209 1.791 4 4 4h28c2.209 0 4-1.791 4-4v-10z" fill="#269"/><path d="m22 28.0001c-1.979 0-3.25-.749-4-1.437-.75.688-2.021 1.437-4 1.437-3.577 0-4.842-2.448-4.895-2.553-.247-.494-.047-1.095.447-1.342.491-.244 1.086-.049 1.336.437.046.082.834 1.458 3.112 1.458 2.298 0 3.08-1.4 3.112-1.46.177-.328.503-.524.899-.533.373.006.716.212.883.546.026.047.807 1.447 3.106 1.447s3.08-1.4 3.112-1.46c.26-.481.859-.673 1.345-.42.485.251.682.839.438 1.327-.052.105-1.318 2.553-4.895 2.553zm4 6c-1.979 0-3.25-.749-4-1.437-.75.688-2.021 1.437-4 1.437s-3.25-.749-4-1.437c-.75.688-2.021 1.437-4 1.437-3.577 0-4.842-2.448-4.895-2.553-.247-.494-.047-1.095.447-1.342.491-.243 1.086-.049 1.336.437.046.082.834 1.458 3.112 1.458 2.298 0 3.08-1.4 3.112-1.46.177-.328.523-.534.899-.533.373.006.716.212.883.546.026.047.808 1.447 3.106 1.447 2.299 0 3.08-1.4 3.112-1.46.177-.328.53-.541.899-.533.373.006.716.212.883.546.026.047.807 1.447 3.106 1.447s3.08-1.4 3.112-1.46c.26-.481.86-.673 1.345-.42.485.251.682.839.438 1.327-.052.105-1.318 2.553-4.895 2.553z" fill="#3b88c3"/></svg>