<svg fill="none" height="36" viewBox="0 0 36 36" width="36" xmlns="http://www.w3.org/2000/svg"><path id="OUTLINE" clip-rule="evenodd" d="m15.4725 9h-4.4725v2h-8c-1.657 0-3 1.343-3 3v1 7 2 1 2 1c0 1.657 1.343 3 3 3 0 2.2091 1.79086 4 4 4s4-1.7909 4-4h2 10 2c0 2.2091 1.7909 4 4 4s4-1.7909 4-4c1.657 0 3-1.343 3-3v-1-2-1-2-8c0-1.657-1.343-3-3-3h-8v-2h-6.522c3.9073-3.10365 8.0461-3.90395 8.603-4h2.919c.553 0 1-.448 1-1s-.447-1-1-1h-3c-.047 0-.095.003-.142.01-.2776.03966-6.3716.96393-11.3855 5.99z" fill="#d9d9d9" fill-rule="evenodd"/><path d="m0 22v6c0 1.657 1.343 3 3 3h30c1.657 0 3-1.343 3-3v-6z" fill="#77b255"/><path d="m15 12c-.226 0-.453-.076-.64-.232-.424-.354-.482-.984-.128-1.408 5.186-6.224 12.325-7.307 12.626-7.35.047-.007.095-.01.142-.01h3c.553 0 1 .448 1 1s-.447 1-1 1h-2.919c-.69.119-6.878 1.319-11.312 6.641-.198.237-.482.359-.769.359z" fill="#6d6e71"/><path d="m11 9h14v4h-14z" fill="#a7a9ac"/><path d="m36 22v-8c0-1.657-1.343-3-3-3h-30c-1.657 0-3 1.343-3 3v8z" fill="#e6e7e8"/><path d="m0 22h36v2h-36zm7 3c-3.063 0-5.586 2.298-5.95 5.263.526.453 1.202.737 1.95.737h10c0-3.313-2.686-6-6-6zm27.95 5.263c-.364-2.965-2.887-5.263-5.95-5.263-3.313 0-6 2.687-6 6h10c.749 0 1.425-.284 1.95-.737z" fill="#5c913b"/><path d="m7 35c2.20914 0 4-1.7909 4-4s-1.79086-4-4-4-4 1.7909-4 4 1.79086 4 4 4z" fill="#000"/><path d="m7 33c1.10457 0 2-.8954 2-2s-.89543-2-2-2-2 .8954-2 2 .89543 2 2 2z" fill="#99aab5"/><path d="m29 35c2.2091 0 4-1.7909 4-4s-1.7909-4-4-4-4 1.7909-4 4 1.7909 4 4 4z" fill="#000"/><path d="m29 33c1.1046 0 2-.8954 2-2s-.8954-2-2-2-2 .8954-2 2 .8954 2 2 2z" fill="#99aab5"/><path d="m27 19c0 .553-.447 1-1 1h-3c-.553 0-1-.447-1-1v-3c0-.552.447-1 1-1h3c.553 0 1 .448 1 1zm7 0c0 .553-.447 1-1 1h-3c-.553 0-1-.447-1-1v-3c0-.552.447-1 1-1h3c.553 0 1 .448 1 1zm-21 0c0 .553-.448 1-1 1h-3c-.552 0-1-.447-1-1v-3c0-.552.448-1 1-1h3c.552 0 1 .448 1 1zm7 0c0 .553-.447 1-1 1h-3c-.552 0-1-.447-1-1v-3c0-.552.448-1 1-1h3c.553 0 1 .448 1 1zm-15-4h-5v7h5c.552 0 1-.447 1-1v-5c0-.552-.448-1-1-1z" fill="#55acee"/><path d="m0 25h1v2h-1z" fill="#ffe8b6"/><path d="m35 25h1v2h-1z" fill="#ea596e"/><path d="m35 22h1v2h-1z" fill="#f4abba"/></svg>